<svg xmlns="http://www.w3.org/2000/svg" xmlns:xlink="http://www.w3.org/1999/xlink" width="228" zoomAndPan="magnify" viewBox="0 0 171 167.999997" height="224" preserveAspectRatio="xMidYMid meet" version="1.2"><defs/><g id="02e81ae437"><path style=" stroke:none;fill-rule:nonzero;fill:#1a4170;fill-opacity:1;" d="M 84.839844 77.984375 L 84.839844 72.945312 L 91.027344 72.945312 L 91.027344 73.097656 C 95.117188 70.515625 99.546875 68.828125 104.316406 68.03125 L 86.027344 49.742188 C 85.753906 49.480469 85.4375 49.28125 85.085938 49.140625 C 84.734375 49.003906 84.371094 48.933594 83.992188 48.933594 C 83.613281 48.933594 83.246094 49.003906 82.894531 49.140625 C 82.542969 49.28125 82.230469 49.480469 81.953125 49.742188 L 46.03125 85.71875 L 46.03125 120.070312 C 46.03125 120.4375 46.066406 120.800781 46.136719 121.164062 C 46.210938 121.523438 46.316406 121.875 46.457031 122.214844 C 46.597656 122.554688 46.769531 122.878906 46.976562 123.183594 C 47.179688 123.492188 47.410156 123.773438 47.671875 124.035156 C 47.933594 124.292969 48.214844 124.527344 48.523438 124.730469 C 48.828125 124.9375 49.152344 125.109375 49.492188 125.25 C 49.832031 125.390625 50.183594 125.496094 50.542969 125.570312 C 50.902344 125.640625 51.269531 125.675781 51.636719 125.675781 L 76.875 125.675781 C 76.734375 125.378906 76.59375 125.082031 76.464844 124.773438 C 68.125 105.089844 76.902344 87.175781 81.929688 81.128906 C 82.84375 80.027344 83.8125 78.980469 84.839844 77.984375 Z M 84.839844 65.015625 L 91.027344 65.015625 L 91.027344 71.21875 L 84.839844 71.21875 Z M 76.914062 65.015625 L 83.128906 65.015625 L 83.128906 71.21875 L 76.941406 71.21875 Z M 76.914062 72.945312 L 83.128906 72.945312 L 83.128906 79.144531 L 76.941406 79.144531 Z M 76.914062 72.945312 "/><path style=" stroke:none;fill-rule:nonzero;fill:#1a4170;fill-opacity:1;" d="M 87.496094 31.101562 C 87.265625 30.871094 87.011719 30.664062 86.742188 30.484375 C 86.46875 30.300781 86.179688 30.148438 85.878906 30.023438 C 85.578125 29.898438 85.265625 29.804688 84.945312 29.738281 C 84.621094 29.675781 84.296875 29.644531 83.972656 29.644531 C 83.644531 29.644531 83.320312 29.675781 83 29.738281 C 82.679688 29.804688 82.367188 29.898438 82.0625 30.023438 C 81.761719 30.148438 81.472656 30.300781 81.203125 30.484375 C 80.929688 30.664062 80.675781 30.871094 80.445312 31.101562 L 60.890625 50.65625 L 60.890625 44.46875 C 60.890625 44.246094 60.847656 44.027344 60.761719 43.820312 C 60.675781 43.609375 60.554688 43.425781 60.394531 43.265625 C 60.234375 43.109375 60.050781 42.984375 59.839844 42.898438 C 59.632812 42.8125 59.417969 42.769531 59.191406 42.769531 L 47.808594 42.769531 C 47.582031 42.769531 47.367188 42.8125 47.15625 42.898438 C 46.949219 42.984375 46.765625 43.109375 46.605469 43.265625 C 46.445312 43.425781 46.324219 43.609375 46.238281 43.820312 C 46.148438 44.027344 46.105469 44.246094 46.105469 44.46875 L 46.105469 65.441406 L 34.273438 77.273438 C 34.027344 77.523438 33.820312 77.800781 33.65625 78.109375 C 33.492188 78.421875 33.375 78.746094 33.308594 79.089844 C 33.242188 79.433594 33.222656 79.78125 33.257812 80.128906 C 33.292969 80.476562 33.378906 80.8125 33.511719 81.136719 C 33.648438 81.460938 33.828125 81.757812 34.050781 82.027344 C 34.269531 82.296875 34.527344 82.53125 34.820312 82.726562 C 35.109375 82.917969 35.425781 83.066406 35.757812 83.167969 C 36.09375 83.269531 36.4375 83.320312 36.789062 83.320312 L 43.824219 83.320312 L 79.683594 47.460938 C 79.96875 47.179688 80.277344 46.925781 80.609375 46.703125 C 80.941406 46.484375 81.292969 46.296875 81.660156 46.144531 C 82.03125 45.992188 82.410156 45.875 82.804688 45.796875 C 83.195312 45.71875 83.589844 45.679688 83.992188 45.679688 C 84.390625 45.679688 84.785156 45.71875 85.179688 45.796875 C 85.570312 45.875 85.949219 45.992188 86.320312 46.144531 C 86.6875 46.296875 87.039062 46.484375 87.371094 46.703125 C 87.707031 46.925781 88.011719 47.179688 88.296875 47.460938 L 108.429688 67.59375 C 109.5 67.59375 110.558594 67.515625 111.625 67.59375 C 117.761719 68.101562 123.554688 69.785156 129.003906 72.648438 Z M 87.496094 31.101562 "/><path style=" stroke:none;fill-rule:nonzero;fill:#1a4170;fill-opacity:1;" d="M 94.40625 151.996094 C 92.359375 152.308594 90.304688 152.519531 88.242188 152.640625 C 86.175781 152.757812 84.109375 152.78125 82.042969 152.710938 C 79.976562 152.636719 77.914062 152.46875 75.863281 152.207031 C 73.8125 151.941406 71.777344 151.585938 69.757812 151.132812 C 67.742188 150.683594 65.746094 150.140625 63.777344 149.503906 C 61.8125 148.867188 59.875 148.140625 57.976562 147.328125 C 56.074219 146.511719 54.214844 145.609375 52.398438 144.621094 C 50.582031 143.636719 48.8125 142.566406 47.09375 141.414062 C 45.375 140.265625 43.714844 139.035156 42.109375 137.730469 C 40.503906 136.425781 38.960938 135.050781 37.484375 133.605469 C 36.007812 132.15625 34.597656 130.644531 33.261719 129.066406 C 31.925781 127.488281 30.664062 125.851562 29.476562 124.15625 C 28.289062 122.464844 27.183594 120.71875 26.160156 118.921875 C 25.136719 117.125 24.195312 115.28125 23.34375 113.398438 C 22.488281 111.515625 21.722656 109.597656 21.046875 107.640625 C 20.371094 105.6875 19.785156 103.707031 19.292969 101.695312 C 18.800781 99.6875 18.402344 97.660156 18.097656 95.613281 C 17.792969 93.570312 17.582031 91.511719 17.464844 89.449219 C 17.351562 87.382812 17.332031 85.316406 17.40625 83.25 C 17.484375 81.183594 17.65625 79.125 17.921875 77.074219 C 18.191406 75.023438 18.550781 72.988281 19.007812 70.96875 C 19.460938 68.953125 20.007812 66.960938 20.648438 64.992188 C 21.289062 63.027344 22.015625 61.09375 22.835938 59.191406 C 23.65625 57.292969 24.558594 55.4375 25.550781 53.621094 C 26.539062 51.804688 27.613281 50.039062 28.765625 48.320312 C 29.921875 46.605469 31.152344 44.945312 32.460938 43.34375 C 33.769531 41.742188 35.148438 40.203125 36.597656 38.726562 C 38.046875 37.253906 39.5625 35.847656 41.144531 34.515625 C 42.722656 33.179688 44.363281 31.921875 46.058594 30.738281 C 47.753906 29.554688 49.503906 28.453125 51.300781 27.433594 C 53.101562 26.410156 54.941406 25.476562 56.828125 24.625 C 58.714844 23.773438 60.632812 23.011719 62.589844 22.339844 C 64.546875 21.667969 66.527344 21.085938 68.539062 20.597656 C 70.546875 20.109375 72.578125 19.710938 74.621094 19.410156 C 76.667969 19.109375 78.726562 18.902344 80.789062 18.792969 C 82.855469 18.679688 84.921875 18.664062 86.988281 18.746094 C 89.054688 18.824219 91.113281 19 93.164062 19.273438 C 95.214844 19.542969 97.25 19.90625 99.265625 20.367188 C 101.28125 20.824219 103.273438 21.378906 105.238281 22.019531 C 107.207031 22.664062 109.136719 23.398438 111.035156 24.21875 C 112.933594 25.042969 114.789062 25.949219 116.601562 26.941406 C 118.417969 27.9375 120.179688 29.011719 121.894531 30.171875 C 123.609375 31.328125 125.265625 32.5625 126.867188 33.871094 C 128.464844 35.183594 130.003906 36.566406 131.472656 38.019531 C 132.945312 39.472656 134.347656 40.988281 135.679688 42.570312 C 137.011719 44.15625 138.265625 45.796875 139.445312 47.496094 C 140.625 49.191406 141.726562 50.941406 142.742188 52.742188 C 143.761719 54.542969 144.691406 56.386719 145.539062 58.273438 C 147.113281 57.269531 148.832031 56.769531 150.695312 56.765625 C 151.835938 56.777344 152.945312 56.96875 154.023438 57.347656 C 155.101562 57.722656 156.089844 58.265625 156.988281 58.972656 C 156.15625 56.699219 155.21875 54.472656 154.179688 52.289062 C 153.140625 50.101562 152 47.972656 150.761719 45.894531 C 149.519531 43.816406 148.1875 41.804688 146.757812 39.851562 C 145.332031 37.898438 143.8125 36.015625 142.210938 34.207031 C 140.605469 32.394531 138.917969 30.664062 137.152344 29.011719 C 135.386719 27.359375 133.546875 25.792969 131.632812 24.3125 C 129.71875 22.832031 127.742188 21.445312 125.699219 20.152344 C 123.652344 18.855469 121.554688 17.660156 119.398438 16.5625 C 117.242188 15.464844 115.042969 14.46875 112.792969 13.578125 C 110.542969 12.683594 108.257812 11.902344 105.9375 11.222656 C 103.613281 10.546875 101.265625 9.976562 98.890625 9.519531 C 96.515625 9.0625 94.125 8.714844 91.714844 8.484375 C 89.308594 8.25 86.894531 8.128906 84.476562 8.121094 C 82.054688 8.113281 79.640625 8.21875 77.234375 8.4375 C 74.824219 8.65625 72.429688 8.988281 70.050781 9.429688 C 67.671875 9.875 65.320312 10.425781 62.996094 11.089844 C 60.667969 11.753906 58.378906 12.523438 56.125 13.402344 C 53.871094 14.277344 51.660156 15.261719 49.5 16.34375 C 47.335938 17.429688 45.230469 18.613281 43.179688 19.894531 C 41.128906 21.175781 39.140625 22.550781 37.21875 24.019531 C 35.296875 25.488281 33.445312 27.042969 31.667969 28.683594 C 29.890625 30.324219 28.195312 32.046875 26.578125 33.847656 C 24.964844 35.648438 23.4375 37.519531 21.996094 39.460938 C 20.554688 41.40625 19.207031 43.414062 17.957031 45.480469 C 16.703125 47.550781 15.550781 49.675781 14.496094 51.851562 C 13.445312 54.03125 12.496094 56.253906 11.648438 58.519531 C 10.804688 60.785156 10.066406 63.085938 9.4375 65.421875 C 8.808594 67.757812 8.289062 70.117188 7.878906 72.503906 C 7.46875 74.886719 7.175781 77.285156 6.992188 79.695312 C 6.804688 82.109375 6.734375 84.523438 6.777344 86.945312 C 6.820312 89.363281 6.976562 91.773438 7.242188 94.175781 C 7.511719 96.582031 7.890625 98.96875 8.382812 101.335938 C 8.875 103.707031 9.476562 106.046875 10.1875 108.359375 C 10.898438 110.671875 11.714844 112.945312 12.640625 115.179688 C 13.5625 117.414062 14.589844 119.601562 15.71875 121.742188 C 16.847656 123.882812 18.074219 125.964844 19.398438 127.988281 C 20.722656 130.011719 22.136719 131.972656 23.644531 133.863281 C 25.152344 135.753906 26.746094 137.574219 28.421875 139.316406 C 30.101562 141.058594 31.855469 142.71875 33.691406 144.296875 C 35.523438 145.875 37.425781 147.363281 39.398438 148.765625 C 41.371094 150.164062 43.40625 151.46875 45.5 152.679688 C 47.59375 153.886719 49.742188 154.996094 51.941406 156.007812 C 54.140625 157.015625 56.382812 157.917969 58.664062 158.714844 C 60.949219 159.515625 63.265625 160.203125 65.613281 160.785156 C 67.960938 161.367188 70.332031 161.839844 72.722656 162.199219 C 75.113281 162.558594 77.519531 162.804688 79.933594 162.9375 C 82.347656 163.074219 84.765625 163.09375 87.183594 163 C 89.601562 162.910156 92.007812 162.703125 94.40625 162.386719 Z M 94.40625 151.996094 "/><path style=" stroke:none;fill-rule:nonzero;fill:#29df64;fill-opacity:1;" d="M 108.699219 85.007812 C 100.566406 84.777344 98.789062 85.769531 96.894531 82.546875 C 91.351562 73.097656 127.828125 62.878906 134.144531 91.246094 C 134.199219 91.460938 134.335938 91.570312 134.558594 91.570312 C 134.777344 91.570312 134.917969 91.460938 134.96875 91.246094 C 137.636719 80.9375 127.933594 62.644531 125.832031 59.34375 C 123.332031 55.476562 128.808594 47.433594 135.71875 53.984375 C 141.632812 59.617188 146.261719 76.101562 146.972656 91.726562 C 146.972656 91.828125 147.007812 91.917969 147.082031 91.988281 C 147.152344 92.0625 147.242188 92.097656 147.34375 92.097656 C 147.449219 92.097656 147.535156 92.0625 147.609375 91.988281 C 147.683594 91.917969 147.71875 91.828125 147.71875 91.726562 C 149.34375 81.929688 146.777344 69.078125 146.429688 67.078125 C 145.386719 60.980469 154.832031 58.882812 156.625 68.226562 C 157.914062 74.941406 157.425781 86.917969 156.625 94.238281 C 156.609375 94.332031 156.628906 94.414062 156.679688 94.496094 C 156.730469 94.574219 156.800781 94.625 156.890625 94.648438 C 156.980469 94.671875 157.066406 94.660156 157.152344 94.617188 C 157.234375 94.574219 157.289062 94.507812 157.320312 94.417969 C 159.140625 90.035156 159.628906 86.761719 160.3125 81.527344 C 161.265625 74.078125 168.78125 77.183594 168.511719 84.378906 C 168.304688 90.164062 170.1875 111.976562 153.042969 138.515625 C 152.054688 140.035156 151.304688 141.664062 150.789062 143.398438 C 150.273438 145.136719 150.015625 146.910156 150.011719 148.722656 L 150.011719 164.191406 C 150.011719 164.414062 149.96875 164.628906 149.886719 164.832031 C 149.800781 165.039062 149.679688 165.21875 149.523438 165.375 C 149.363281 165.535156 149.183594 165.65625 148.976562 165.738281 C 148.773438 165.824219 148.558594 165.867188 148.335938 165.867188 L 101.238281 165.867188 C 101.015625 165.867188 100.800781 165.824219 100.597656 165.738281 C 100.390625 165.65625 100.210938 165.535156 100.050781 165.375 C 99.894531 165.21875 99.773438 165.039062 99.6875 164.832031 C 99.605469 164.628906 99.5625 164.414062 99.5625 164.191406 L 99.5625 149.664062 C 99.566406 148.832031 99.476562 148.003906 99.292969 147.191406 C 99.109375 146.378906 98.835938 145.59375 98.472656 144.84375 C 98.109375 144.089844 97.664062 143.390625 97.140625 142.738281 C 96.617188 142.089844 96.027344 141.503906 95.371094 140.988281 C 92.257812 138.617188 89.5 135.886719 87.097656 132.800781 C 84.695312 129.710938 82.726562 126.363281 81.195312 122.761719 C 73.460938 104.550781 81.953125 88.617188 85.679688 84.648438 C 91.984375 77.933594 100.285156 85.304688 95.992188 92.78125 C 94.738281 94.851562 94.140625 97.09375 94.199219 99.511719 C 94.1875 100.449219 94.261719 101.378906 94.429688 102.304688 C 94.597656 103.226562 94.855469 104.125 95.195312 105 C 95.539062 105.875 95.960938 106.707031 96.464844 107.5 C 96.96875 108.292969 97.542969 109.027344 98.191406 109.707031 C 98.839844 110.386719 99.546875 111 100.3125 111.542969 C 101.078125 112.085938 101.886719 112.550781 102.742188 112.9375 C 103.597656 113.320312 104.484375 113.621094 105.398438 113.835938 C 106.3125 114.046875 107.238281 114.171875 108.175781 114.207031 C 109.117188 114.238281 110.046875 114.183594 110.976562 114.035156 C 111.902344 113.886719 112.804688 113.652344 113.6875 113.332031 C 114.570312 113.007812 115.410156 112.601562 116.214844 112.117188 C 117.015625 111.628906 117.765625 111.070312 118.460938 110.4375 C 119.15625 109.804688 119.78125 109.113281 120.339844 108.359375 C 120.902344 107.605469 121.382812 106.804688 121.785156 105.957031 C 122.191406 105.113281 122.511719 104.234375 122.742188 103.324219 C 122.976562 102.414062 123.121094 101.492188 123.175781 100.554688 C 123.210938 100.058594 123.222656 99.5625 123.207031 99.066406 C 123.191406 98.570312 123.152344 98.074219 123.085938 97.582031 C 123.019531 97.089844 122.925781 96.601562 122.8125 96.117188 C 122.695312 95.632812 122.554688 95.160156 122.390625 94.691406 C 122.222656 94.222656 122.035156 93.761719 121.824219 93.3125 C 121.609375 92.863281 121.375 92.425781 121.117188 92 C 120.859375 91.574219 120.582031 91.164062 120.28125 90.769531 C 119.984375 90.371094 119.664062 89.992188 119.324219 89.628906 C 118.988281 89.265625 118.628906 88.917969 118.253906 88.59375 C 117.882812 88.265625 117.492188 87.957031 117.085938 87.671875 C 116.679688 87.382812 116.261719 87.117188 115.828125 86.875 C 115.394531 86.628906 114.949219 86.410156 114.496094 86.210938 C 114.039062 86.011719 113.574219 85.839844 113.101562 85.6875 C 112.625 85.539062 112.144531 85.414062 111.660156 85.3125 C 111.171875 85.210938 110.683594 85.136719 110.1875 85.085938 C 109.695312 85.035156 109.199219 85.007812 108.699219 85.007812 Z M 108.699219 85.007812 "/><g style="fill:#1a4170;fill-opacity:1;"><g transform="translate(50.727325, 106.014853)"><path style="stroke:none" d=""/></g></g><g style="fill:#1a4170;fill-opacity:1;"><g transform="translate(56.006381, 106.014853)"><path style="stroke:none" d="M 4.515625 -15.546875 L 6.078125 -16.40625 L 6.078125 -14.140625 C 6.078125 -13.640625 5.894531 -13.226562 5.53125 -12.90625 C 5.175781 -12.59375 4.71875 -12.4375 4.15625 -12.4375 C 3.695312 -12.4375 3.316406 -12.535156 3.015625 -12.734375 C 2.691406 -12.535156 2.316406 -12.4375 1.890625 -12.4375 C 1.335938 -12.4375 0.882812 -12.59375 0.53125 -12.90625 C 0.175781 -13.226562 0 -13.640625 0 -14.140625 L 0 -15.09375 L 1.546875 -15.953125 L 1.546875 -14.234375 C 1.546875 -14.023438 1.664062 -13.921875 1.90625 -13.921875 C 2.144531 -13.921875 2.265625 -14.019531 2.265625 -14.21875 L 2.265625 -15.328125 L 3.8125 -16.1875 L 3.8125 -14.21875 C 3.8125 -14.019531 3.925781 -13.921875 4.15625 -13.921875 C 4.394531 -13.921875 4.515625 -14.023438 4.515625 -14.234375 Z M 4.515625 -15.546875 "/></g><g transform="translate(56.006381, 106.014853)"><path style="stroke:none" d=""/></g></g><g style="fill:#1a4170;fill-opacity:1;"><g transform="translate(61.285918, 106.014853)"><path style="stroke:none" d=""/></g></g></g></svg>